<svg id="Capa_1" enable-background="new 0 0 512.022 512.022" height="512" viewBox="0 0 512.022 512.022" width="512" xmlns="http://www.w3.org/2000/svg"><g><g><g><path d="m497.011 212.022h-92.97c-73.79 0-88.96-122 1.97-122 11.18 0 18.4-11.8 13.4-21.74-.52-.7-17.56-40.32-62.44-58.99-46.9-19.51-108.23-9.89-146.81 44.1l-64.05 89.67c-30.38 42.54-80.62 68.96-131.1 68.96-8.28 0-15 6.72-15 15v77.96c17.332-6.576 36.924-1.885 49.37 11.86 17.445 19.176 34.775 20.334 53.28-.03 17.809-19.653 48.929-19.745 66.8.1 17.85 19.684 35.24 19.693 53.2-.1 17.809-19.653 48.929-19.745 66.8.1 17.85 19.684 35.24 19.693 53.2-.1 17.877-19.727 49.061-19.689 66.88.18l.34.4c16.423 18.965 35.834 18.968 52.26 0l.34-.4c12.461-13.895 32.207-18.606 49.53-12v-77.97c0-8.28-6.72-15-15-15z"/></g></g><g><g><path d="m507.151 336.982c-6.06-6.69-16.47-6.5-22.32.03-28.36 32.801-69.264 32.82-97.64 0-5.85-6.53-16.26-6.72-22.32-.03-30.18 33.22-68.09 32.72-97.68.03-5.85-6.53-16.26-6.72-22.32-.03-30.18 33.22-68.09 32.72-97.68.03-5.85-6.53-16.26-6.72-22.32-.03-29.278 32.24-67.139 33.674-97.72 0-6.06-6.69-16.47-6.5-22.32.03-1.58 1.75-3.19 3.41-4.82 4.97v75c1.63-1.56 3.24-3.22 4.82-4.97 5.85-6.53 16.26-6.72 22.32-.03 29.278 32.24 67.139 33.674 97.72 0 6.06-6.69 16.47-6.5 22.32.03 29.59 32.69 67.5 33.19 97.68-.03 6.06-6.69 16.47-6.5 22.32.03 29.59 32.69 67.5 33.19 97.68-.03 6.06-6.69 16.47-6.5 22.32.03 29.831 32.94 67.797 32.954 97.64 0 5.85-6.53 16.26-6.72 22.32-.03 1.6 1.76 3.22 3.42 4.86 4.98v-75c-1.64-1.56-3.26-3.22-4.86-4.98z"/></g></g><g><g><path d="m376.011 442.492c-38.16 31.5-79.17 33.7-120 0-38.16 31.5-79.17 33.7-120 0-39.014 32.203-80.423 32.668-120 0-5.33 4.4-10.67 8.19-16 11.38v43.15c0 8.284 6.716 15 15 15h482c8.284 0 15-6.716 15-15v-43.16c-5.38-3.21-10.72-7.01-16-11.37-39.034 32.229-80.466 32.642-120 0z"/></g></g></g></svg>